<svg xmlns="http://www.w3.org/2000/svg" width="40" height="40" viewBox="0 0 40 40"><defs><style>.a{fill:#407bff;}</style></defs><path class="a" d="M34.886,16.312a4.548,4.548,0,0,0-3.636,4.56v2.254a.625.625,0,0,1-.625.625H27.5V7.925A7.785,7.785,0,0,0,20.4.012,7.5,7.5,0,0,0,12.5,7.5V15H9.375a.625.625,0,0,1-.625-.625V12.122a4.548,4.548,0,0,0-3.636-4.56A4.381,4.381,0,0,0,0,11.876v2.5a9.375,9.375,0,0,0,9.375,9.375H12.5v15A1.25,1.25,0,0,0,13.75,40h12.5a1.25,1.25,0,0,0,1.25-1.25V32.5h3.125A9.375,9.375,0,0,0,40,23.126v-2.5a4.381,4.381,0,0,0-5.114-4.314ZM12.5,21.251H9.375A6.882,6.882,0,0,1,2.5,14.376v-2.5a1.875,1.875,0,0,1,3.75,0v2.5A3.125,3.125,0,0,0,9.375,17.5H12.5ZM25,37.5H15V7.5a5,5,0,1,1,10,0ZM37.5,23.126A6.882,6.882,0,0,1,30.625,30H27.5v-3.75h3.125a3.125,3.125,0,0,0,3.125-3.125v-2.5a1.875,1.875,0,1,1,3.75,0ZM18.75,10A1.25,1.25,0,1,0,20,11.251,1.25,1.25,0,0,0,18.75,10Zm2.5,17.5a1.25,1.25,0,1,0,1.25,1.25A1.25,1.25,0,0,0,21.25,27.5Z" transform="translate(0 -0.001)"/></svg>