<svg xmlns="http://www.w3.org/2000/svg" width="425.882" height="353.969" viewBox="0 0 425.882 353.969"><defs><style>.a{fill:#f5f5f5;}.b{fill:#ebebeb;}.c{fill:#e6e6e6;}.d{fill:#e0e0e0;}.e{fill:#407bff;}.f,.g,.i,.j,.m,.q,.r{fill:#fff;}.f{opacity:0.8;}.f,.g,.i,.j,.k,.l,.m,.n,.r{isolation:isolate;}.g,.k,.n,.p{opacity:0.2;}.h{fill:#263238;}.i{opacity:0.4;}.j{opacity:0.6;}.l{opacity:0.3;}.m{opacity:0.1;}.o{fill:#e4897b;}.r{opacity:0.5;}.s{fill:none;stroke:#263238;stroke-miterlimit:10;stroke-width:3px;}</style></defs><g transform="translate(-43.176 -73.592)"><circle class="a" cx="41.546" cy="41.546" r="41.546" transform="translate(293.849 106.743)"/><path class="b" d="M409.547,140.1a6.762,6.762,0,0,0-8.711-6.481,14.326,14.326,0,0,0-16.818-16.162,12.524,12.524,0,0,0-23.225,6.332c-.07,0-.138-.01-.209-.01a11.544,11.544,0,1,0,0,23.088h42.394l-.008-.01A6.763,6.763,0,0,0,409.547,140.1Z"/><path class="b" d="M302.613,177.34a6.764,6.764,0,0,0-8.71-6.481A14.322,14.322,0,0,0,277.085,154.7a12.524,12.524,0,0,0-23.225,6.331c-.07,0-.139-.01-.209-.01a11.544,11.544,0,1,0,0,23.088h42.394l-.008-.01A6.762,6.762,0,0,0,302.613,177.34Z"/><path class="b" d="M115.954,190.146a6.762,6.762,0,0,0-8.711-6.481A14.326,14.326,0,0,0,90.425,167.5,12.524,12.524,0,0,0,67.2,173.835c-.07,0-.138-.01-.209-.01a11.544,11.544,0,1,0,0,23.088h42.4l-.009-.01A6.763,6.763,0,0,0,115.954,190.146Z"/><path class="b" d="M405.636,222.436a4.088,4.088,0,0,0-5.265-3.917,8.658,8.658,0,0,0-10.165-9.768,7.569,7.569,0,0,0-14.037,3.827c-.043,0-.084-.006-.127-.006a6.977,6.977,0,0,0,0,13.954h25.624l0-.006A4.087,4.087,0,0,0,405.636,222.436Z"/><path class="b" d="M158.43,90.915A4.085,4.085,0,0,0,153.166,87,8.654,8.654,0,0,0,143,77.23a7.57,7.57,0,0,0-14.038,3.827c-.042,0-.083-.007-.126-.007a6.977,6.977,0,0,0,0,13.955h25.624L154.455,95A4.086,4.086,0,0,0,158.43,90.915Z"/><path class="b" d="M89.857,243.665l27.082,123,4.921-2.308L93.419,242.969Z"/><path class="c" d="M400.779,366.077S384.041,250.5,421.725,130.961l-5.913-4.561s-44.164,90.4-37.734,242.92Z"/><path class="d" d="M431.983,99.579c13.817-9.054,34.271,5.356,37.075,27.871a42.693,42.693,0,0,0-6.343-3.014c-1.071-5.663-2.1-10.678-2.1-10.678l.735,10.167c-1.214-.435-2.542-.861-3.978-1.251l-.956-5.473-.451,5.109a49.1,49.1,0,0,0-5.941-1.052l-2.578-15.967L446.1,120.98a42.029,42.029,0,0,0-6.132.272l-1.58-10.865-.014,11.08a39.632,39.632,0,0,0-5.18,1.195l-1.892-16.205s.056,9.112-.047,16.838a42.524,42.524,0,0,0-13.343,7.85l-.144-2S419.372,107.843,431.983,99.579Z"/><path class="d" d="M412.891,92.343c-10.969-12.352-34.479-3.792-43.073,17.206a42.751,42.751,0,0,1,6.91-1.25c2.514-5.186,4.822-9.757,4.822-9.757l-3.368,9.622c1.286-.1,2.679-.167,4.167-.168l2.353-5.032-.9,5.048a49.462,49.462,0,0,1,6.009.539l6.664-14.737-2.811,15.492a42.313,42.313,0,0,1,5.848,1.866l4.366-10.073-2.884,10.7a39.649,39.649,0,0,1,4.688,2.508l6.063-15.146s-2.437,8.78-4.357,16.264a42.531,42.531,0,0,1,10.826,11.066l.661-1.888S422.9,103.617,412.891,92.343Z"/><path class="d" d="M402.316,121.633c11-10.736,19.26-1.392,19.26-1.392-4.13,1.073-7.814,3.716-11.025,7.087l-1.488-1.937.239,3.309c-.767.882-1.5,1.8-2.209,2.747l-2.52-5.731,1.075,7.759c-1.012,1.487-1.955,3.009-2.824,4.527l-1.11-5.687.084,7.536c-.915,1.7-1.739,3.366-2.466,4.937l-1.2-10.427-.157,13.485c-1.76,4.159-2.674,7.083-2.674,7.083S391.319,132.369,402.316,121.633Z"/><path class="d" d="M432.011,146.992l-2.272,1.308c-.333-1.746-.715-3.583-1.152-5.443l1.548-2.827-1.943,1.2q-.232-.927-.484-1.849l1.979-5.54-2.963,2.207c-1.6-4.993-3.643-9.387-6.2-11.485,0,0,25.227,8.059,10.971,35.251,0,0-.456-4.3-1.471-9.956Z"/><path class="d" d="M407.2,124.749l-4.034-7.6,1.659,7.913q-.6.1-1.219.221l-5.228-6.509,1.288,7.5a46.718,46.718,0,0,0-5.251,1.935,59.2,59.2,0,0,0-5.451,2.751l-2.548-6.649,1.186,7.441c-1.731,1.033-3.414,2.134-5.032,3.266l-1.268-5.861.119,6.678c-1.981,1.432-3.853,2.9-5.576,4.323l.157-10.618-1.544,11.786c-1.767,1.509-3.348,2.947-4.7,4.225l-.2-7.365-1.861,9.353c-1.945,1.927-3.056,3.161-3.056,3.161,1.015-25.792,11-36.035,27.545-38.8s28.461,14.414,28.461,14.414S415.576,123.91,407.2,124.749Z"/><path class="d" d="M455.442,156.268l-1.513,7.688c-.725-1.909-1.717-4.36-2.965-7.087l1.354-11.251-2.479,8.87a86.777,86.777,0,0,0-6.718-11.6l2.354-7.8-3.819,5.789c-.763-1.005-1.555-1.982-2.377-2.917l1.34-4.911-2.065,4.1q-.847-.918-1.733-1.771l1.624-6.551-2.58,5.663a28.79,28.79,0,0,0-5.3-3.824l2.63-8.01-4.123,7.26a18.2,18.2,0,0,0-8.285-1.732s4.969-7.989,14.188-10.748,29,13.891,20.4,50.6c0,0-.263-.836-.774-2.262Z"/><path class="d" d="M440.282,84.944l1.569,4.659a10.163,10.163,0,0,0-1.721.245l-1.894-6.065L439.5,90.01a13.439,13.439,0,0,0-3.4,1.55L433.5,83.366l1.531,8.929c-.415.307-.837.646-1.265,1.023l-2.941-7.69,2.22,8.354a32.41,32.41,0,0,0-5.508,7.337l-.815-11.274-1.3,15.388a91.666,91.666,0,0,0-5.2,14.906s-1.6-40.959,8.269-45.6,15.74,15.083,15.74,15.083a5.768,5.768,0,0,0-1.35-.22Z"/><path class="d" d="M426.183,130.547l-.881,7.772-2.962-7.494-4.024,5.867-1.571-5.462-4.625,3.88s.565-9.91,3.521-14.44S427.435,119.322,426.183,130.547Z"/><path class="b" d="M303.011,255.486V201.31S292.02,212.978,284.73,211.4s-16.785,3.934-16.785,3.934,9.536-1.391,13.076,2.48,19.339,4.284,19.339,4.284v35.38Z"/><path class="d" d="M351.5,238.879H349v3.407h-8.244v-3.407h-8.093v3.407h-8.244v-3.407h-8.093v3.407h-8.244v-3.407h-8.093v3.407h-8.244v-3.407h-8.093v3.407h-8.244v-3.407h-8.093v3.407h-8.244v-3.407H256.3l-8.032,64.2,111.536-.464Z"/><path class="b" d="M369.244,285.48h-3.429v4.681H354.488V285.48h-11.12v4.681H332.042V285.48H320.922v4.681H309.6V285.48h-11.12v4.681H287.149V285.48H276.03v4.681H264.7V285.48h-11.12v4.681H242.256V285.48h-3.808l-11.035,88.207,153.245-.637Z"/><path class="a" d="M425.846,363.3c-2.365-2.671-4.6-5.4-7.072-7.972a2.746,2.746,0,0,1-.358-.422,20.731,20.731,0,0,0-2.547-1.4c-.156-.054-.674-.262-1.211-.459-.995-.365-1.981-.756-2.964-1.151-6.215-2.5-11.8-5.4-16.484-10.331-2.568-2.7-4.62-5.856-7.283-8.468-.064.086-.587-.188-.835-.4-.792-.09-1.865-.249-2.007-.251-1.074-.018-2.151.018-3.224.066-1.534.068-3.063.194-4.592.328-5.958,8.723-13.5,20.628-16.822,22.2-5.146,2.437-52.612,14.969-56.107,14.229s-21.823.74-26.423.569-12.929-2.212-24.985-7.755-18.655-5.585-33.182-10.211-24.267-6.39-32.768.73-31.85-7.912-39.127-10.054-21.207-14.473-30.707-8.72-17.4,8.489-29.269,18.774-35.42,30.146-35.42,30.146H453.417l-4.6-8.052A32.994,32.994,0,0,1,425.846,363.3Z"/><path class="d" d="M43.176,265s11.67-20.967,43.3-39.116c0,0,25.735-2.194,54.793,10.473,0,0,5.891,9.786-.8,13.643s-12.254-3.9-12.254-3.9-1.235,11.818-9.97,12.161S106.935,250,106.935,250s-.858,10.846-11.283,13.587c-9.052,2.381-14.675-5.325-14.675-5.325s-1.8,8.914-9.911,11.485C64.547,271.814,60.08,266.2,60.08,266.2s-1.871,9.674-8.794,9.674C45.352,275.879,43.176,265,43.176,265Z"/><ellipse class="a" cx="193.889" cy="11.323" rx="193.889" ry="11.323" transform="translate(56.111 404.915)"/><path class="e" d="M383.989,366.907s4.352-6.368,8.308-8.149,4.608-8.544,6.754-8.92,4.52,5.875,8.279,7.694,9.449,9.336,9.449,9.336Z"/><path class="f" d="M383.989,366.907s4.352-6.368,8.308-8.149,4.608-8.544,6.754-8.92,4.52,5.875,8.279,7.694,9.449,9.336,9.449,9.336Z"/><path class="e" d="M415.623,412.774H383.979l-4-45.906h39.644Z"/><rect class="e" width="43.472" height="4.825" transform="translate(378.065 364.495)"/><rect class="g" width="43.472" height="4.825" transform="translate(378.065 364.495)"/><path class="h" d="M397.926,367.887c2.885,4.519,15.21,23.175,22.854,24.534l.945-2.26s-6.848.819-21.967-23.414a1.086,1.086,0,0,0-1.431-.388h0A1.076,1.076,0,0,0,397.926,367.887Z"/><path class="e" d="M352.911,353.409h0a2.55,2.55,0,0,1,3.215,1.732l5.407,18.892,7.027-2.813s4.231,15.752-3.758,18.238c-7.813,2.432-13.846-12.106-13.846-12.106l7.141-1.976-6.818-18.658A2.551,2.551,0,0,1,352.911,353.409Z"/><path class="i" d="M364.8,389.46c-7.81,2.43-13.84-12.11-13.84-12.11l7.14-1.97s1.23,2.1,2.61,1.58.82-2.93.82-2.93l7.03-2.81S372.79,386.97,364.8,389.46Z"/><path class="e" d="M424.667,416.651c-3.932-1.95-7.946-3.792-9.232-3.877-2.769-.183-4.352-1.414-6.33-3.766s-2.769-5.069-6.329-8.853.395-5.3-7.121-6.269-4.616-.355-9.231-3.683-3.686-3.326-9.1-5.7-2.246-3.281-8.576-3.817c-4.37-.369-11.287,1.934-14.871,4.493-1.591,1.136-2.406,3.019-3.974,4.016-1.766,1.123-4.518-.964-4.229,2.8a9.646,9.646,0,0,1,.13,2.948c-.51,2.138-9.321,2.136-11.556,2.8a2.128,2.128,0,0,0-1.344.817c-.509.911.257,2.521-.732,2.855-.309.1-.653-.015-.974.046-1.193.229-.879,2.368-1.991,2.86-1.062.47-2.409-.507-3.65-.042-.956.358-1.271,1.644-2.1,2.15-1.446.883-2.953,1.534-4.38,2.469-2.483,1.627-4.631,3.619-7.294,5.052l-7.121,1.946-2.127.747Z"/><path class="f" d="M424.667,416.651c-3.932-1.95-7.946-3.792-9.232-3.877-2.769-.183-4.352-1.414-6.33-3.766s-2.769-5.069-6.329-8.853.395-5.3-7.121-6.269-4.616-.355-9.231-3.683-3.686-3.326-9.1-5.7-2.246-3.281-8.576-3.817c-4.37-.369-11.287,1.934-14.871,4.493-1.591,1.136-2.406,3.019-3.974,4.016-1.766,1.123-4.518-.964-4.229,2.8a9.646,9.646,0,0,1,.13,2.948c-.51,2.138-9.321,2.136-11.556,2.8a2.128,2.128,0,0,0-1.344.817c-.509.911.257,2.521-.732,2.855-.309.1-.653-.015-.974.046-1.193.229-.879,2.368-1.991,2.86-1.062.47-2.409-.507-3.65-.042-.956.358-1.271,1.644-2.1,2.15-1.446.883-2.953,1.534-4.38,2.469-2.483,1.627-4.631,3.619-7.294,5.052l-7.121,1.946-2.127.747Z"/><path class="e" d="M340.75,398.451a1.618,1.618,0,0,1-.01.22v.01a18.021,18.021,0,0,1-2.84,9.55c-.15.23-.3.46-.47.69a18.212,18.212,0,0,1-3.76,3.93,11.888,11.888,0,0,1-1.02.73h-.01a1.748,1.748,0,0,1-.25.16c-.11.08-.22.14-.33.21a5.731,5.731,0,0,1-.53.32c-.28.16-.57.32-.86.46h-.01a18.143,18.143,0,0,1-21.27-3.72,17.683,17.683,0,0,1-3.05-4.27,18.085,18.085,0,0,1-2-8.29v-.06c0-.51.02-1.02.07-1.52a17.9,17.9,0,0,1,1.93-6.72,16.415,16.415,0,0,1,.88-1.53,18.537,18.537,0,0,1,3.84-4.3,15.683,15.683,0,0,1,1.49-1.08,6.653,6.653,0,0,1,.56-.36,17.8,17.8,0,0,1,4.6-1.99c.14-.04.28-.08.42-.11a18.324,18.324,0,0,1,4.42-.54q.705,0,1.38.06c.12,0,.23.01.35.02h.01a17.92,17.92,0,0,1,5.84,1.58c.07.03.15.07.23.11a18.16,18.16,0,0,1,10.23,14.03v.03A16.988,16.988,0,0,1,340.75,398.451Z"/><path class="j" d="M340.75,398.451a18.162,18.162,0,0,1-10.08,16.28c-.01.01-.01,0-.01,0a3.818,3.818,0,0,1-1-1.23c3.36-9.8,0-15.05,0-15.05l.01-.1.24-1.57.05-.29c.52-2.91,1.83-8.36,4.67-11.66A18.172,18.172,0,0,1,340.75,398.451Z"/><path class="j" d="M308.59,395.3s-3.19,3.19-2.25,11.44a18.2,18.2,0,0,1,4.72-22.42A21.92,21.92,0,0,0,308.59,395.3Z"/><path class="g" d="M334.63,384.831c-4,4.64-4.97,13.62-4.97,13.62-10.98,2.69-21.07-3.15-21.07-3.15a22.026,22.026,0,0,1,2.47-10.98,18.2,18.2,0,0,1,23.57.51Z"/><path class="g" d="M330.66,414.731a18.143,18.143,0,0,1-21.27-3.72c3.41,2.03,10.38,4.87,20.27,2.49A3.818,3.818,0,0,0,330.66,414.731Z"/><g class="k"><path d="M330.36,382.011a21.378,21.378,0,0,0-1.31,2.08,32.1,32.1,0,0,0-1.91,4.28c-.56,1.47-.99,2.98-1.4,4.49-.39,1.52-.74,3.06-1.03,4.61a32.28,32.28,0,0,1,.66-4.69,38.5,38.5,0,0,1,1.3-4.58,28.2,28.2,0,0,1,2.04-4.3,21.859,21.859,0,0,1,1.42-2C330.2,381.931,330.28,381.971,330.36,382.011Z"/><path d="M324.28,380.321c-.25.45-.48.91-.7,1.37a31.265,31.265,0,0,0-1.81,4.81c-.53,1.64-.93,3.32-1.31,5s-.7,3.38-.99,5.08a42.735,42.735,0,0,1,.62-5.16,43.767,43.767,0,0,1,1.2-5.06,28.251,28.251,0,0,1,1.95-4.85c.22-.41.45-.82.69-1.21C324.05,380.3,324.16,380.311,324.28,380.321Z"/><path d="M318.13,380.781c-.1.27-.21.54-.31.81a35.514,35.514,0,0,0-1.35,4.55c-.39,1.54-.69,3.1-.98,4.67s-.53,3.14-.76,4.72a40.348,40.348,0,0,1,.39-4.78,47.207,47.207,0,0,1,.87-4.72,29.894,29.894,0,0,1,1.47-4.59c.08-.18.16-.37.25-.55C317.85,380.851,317.99,380.811,318.13,380.781Z"/><path d="M313.11,382.881c-.34,1.12-.66,2.24-.89,3.38-.29,1.27-.5,2.56-.7,3.85s-.34,2.59-.46,3.9a27.286,27.286,0,0,1,.08-3.94,36.877,36.877,0,0,1,.59-3.91,29.39,29.39,0,0,1,.82-2.92A6.653,6.653,0,0,1,313.11,382.881Z"/><path d="M334.78,404.521a17.818,17.818,0,0,1-.73,5.57,18.833,18.833,0,0,1-.97,2.63c-.13.29-.28.58-.43.86h-.01a1.748,1.748,0,0,1-.25.16,21.037,21.037,0,0,0,1.29-3.75,18.649,18.649,0,0,0,.6-5.46,19.969,19.969,0,0,0-.84-5.43,22.263,22.263,0,0,0-2.2-5.09,17.493,17.493,0,0,1,2.56,4.97A18.653,18.653,0,0,1,334.78,404.521Z"/><path d="M338.37,404.011l-.05,1.51-.21,1.5a9.868,9.868,0,0,1-.21,1.21c-.15.23-.3.46-.47.69a12.946,12.946,0,0,0,.3-1.95l.15-1.48.03-1.48a10.6,10.6,0,0,0-.04-1.49c-.05-.49-.05-.98-.14-1.47a21.863,21.863,0,0,0-1.47-5.73,20.318,20.318,0,0,0-2.94-5.16,17,17,0,0,1,3.29,5.01,21,21,0,0,1,1.62,5.82c.08.5.07,1,.11,1.51A10.876,10.876,0,0,1,338.37,404.011Z"/><path d="M340.75,398.451a1.618,1.618,0,0,1-.01.22c-.02-.11-.04-.23-.06-.34a26.552,26.552,0,0,0-2.01-6.01,21.68,21.68,0,0,0-3.46-5.33,18.589,18.589,0,0,1,3.8,5.16,24.766,24.766,0,0,1,1.58,3.89v.03A16.988,16.988,0,0,1,340.75,398.451Z"/><path d="M307.7,392.421a14.909,14.909,0,0,0-2.05,2.96,19.579,19.579,0,0,0-1.31,3.01c0-.51.02-1.02.07-1.52a15.107,15.107,0,0,1,.91-1.68A10.561,10.561,0,0,1,307.7,392.421Z"/><path d="M308.56,387.581c-.76.86-1.5,1.71-2.22,2.57a16.415,16.415,0,0,1,.88-1.53A14.993,14.993,0,0,1,308.56,387.581Z"/><path d="M308.559,399.159q2.492.957,5.045,1.7a45.319,45.319,0,0,0,5.158,1.229,23.479,23.479,0,0,0,10.5-.13A15.846,15.846,0,0,1,324.025,403a27.563,27.563,0,0,1-5.351-.427,38.288,38.288,0,0,1-5.185-1.356A34.908,34.908,0,0,1,308.559,399.159Z"/><path d="M308.559,403.507a43.1,43.1,0,0,0,5.125,1.681,38.8,38.8,0,0,0,5.277,1.013,30.557,30.557,0,0,0,5.357.253l1.343-.063L327,406.23c.9-.056,1.765-.319,2.663-.448a22.249,22.249,0,0,1-5.32,1.056,27.5,27.5,0,0,1-5.441-.142,33.8,33.8,0,0,1-5.319-1.14A27.814,27.814,0,0,1,308.559,403.507Z"/><path d="M308.989,407.266a31.989,31.989,0,0,0,4.876,1.821,29.917,29.917,0,0,0,5.079,1.023c.855.136,1.719.16,2.581.224.863-.01,1.728.024,2.59-.049a31.045,31.045,0,0,0,5.149-.745,21.787,21.787,0,0,1-5.119,1.128,23.493,23.493,0,0,1-5.261-.062,26.858,26.858,0,0,1-5.132-1.153A22.361,22.361,0,0,1,308.989,407.266Z"/><path d="M309.747,410.1a32.807,32.807,0,0,0,4.593,1.713,29.035,29.035,0,0,0,4.775.984,23.117,23.117,0,0,0,4.862.156l1.218-.1,1.207-.2c.816-.086,1.589-.365,2.4-.518a18.254,18.254,0,0,1-4.79,1.192,21.149,21.149,0,0,1-4.959-.043,25.714,25.714,0,0,1-4.829-1.115A21.845,21.845,0,0,1,309.747,410.1Z"/></g><path class="h" d="M113.791,369.835s3.561-5.34,9.89-5.736,11.671,7.676,11.671,7.676h-2.009s-5.112-5.5-8.772-5.5-7.219,4.549-7.219,4.549Z"/><path class="h" d="M60.08,412.059c2.195-3.652,26.722-1.284,32.261-3.457l2.967,5.145s-4.227,2.346-11.252,1.518-17.627-1.052-20.4,1.386Z"/><path class="l" d="M60.08,412.059c2.195-3.652,26.722-1.284,32.261-3.457l2.967,5.145s-4.227,2.346-11.252,1.518-17.627-1.052-20.4,1.386Z"/><path class="h" d="M163.4,400.93c-.2.87-.42,1.72-.67,2.55-1.97,6.81-5.08,12.32-7.32,13.17H91.82a5.729,5.729,0,0,1-4.53-2.22c-.01-.02-.03-.04-.05-.07a5.025,5.025,0,0,1-.59-.97c-4.39-9.17-8.82-27.51-2.59-35.87a13.9,13.9,0,0,1,2.24-2.36,2.193,2.193,0,0,1,.18-.14,18.733,18.733,0,0,1,4.34-2.65c.01,0,.01-.01.02-.01s.02-.01.03-.01c4.38-1.98,9.76-2.89,15.04-3.28,1.53-.12,3.05-.19,4.54-.22,3.9-.11,7.54-.01,10.44.07,10.22.26,18.26,3.3,23.74,2.77a16.447,16.447,0,0,1,6.04.48,17.041,17.041,0,0,1,1.66.56,26.8,26.8,0,0,1,6.88,4.23C165.39,381.92,165.48,392.11,163.4,400.93Z"/><path class="m" d="M163.4,400.93c-.2.87-.42,1.72-.67,2.55-1.97,6.81-5.08,12.32-7.32,13.17H91.82a5.729,5.729,0,0,1-4.53-2.22c-.01-.02-.03-.04-.05-.07a5.025,5.025,0,0,1-.59-.97c-4.39-9.17-8.82-27.51-2.59-35.87a13.9,13.9,0,0,1,2.24-2.36,2.193,2.193,0,0,1,.18-.14,18.733,18.733,0,0,1,4.34-2.65c.01,0,.01-.01.02-.01s.02-.01.03-.01c4.38-1.98,9.76-2.89,15.04-3.28,1.53-.12,3.05-.19,4.54-.22,3.9-.11,7.54-.01,10.44.07,10.22.26,18.26,3.3,23.74,2.77a16.447,16.447,0,0,1,6.04.48,17.041,17.041,0,0,1,1.66.56,26.8,26.8,0,0,1,6.88,4.23C165.39,381.92,165.48,392.11,163.4,400.93Z"/><path class="n" d="M153.66,400.3c-4.55,0-13.65,2.17-27.1-.79a42.751,42.751,0,0,0-19.093-.145c-.144-2.03-.312-4.227-.487-6.645-1.19-16.25-10.46-23.07-16.11-20.37-.01,0-.02.01-.03.01s-.01.01-.02.01a25.013,25.013,0,0,0-4.34,2.65,2.193,2.193,0,0,0-.18.14,13.9,13.9,0,0,0-2.24,2.36c-6.23,8.36-1.8,26.7,2.59,35.87a5.025,5.025,0,0,0,.59.97c.02.03.04.05.05.07a5.762,5.762,0,0,0,4.32,1.95h11.41c4.649,0,5.2-4.257,4.682-13.41.786-.453,1.753-1.035,2.838-1.74,2.83-1.84,13.84-.93,18.59.85s17.21,2.57,23.24,1.59a40.279,40.279,0,0,1,10.36-.19c.25-.83.47-1.68.67-2.55C161.32,400.71,156.99,400.3,153.66,400.3Z"/><path class="n" d="M112.32,377.35c2.77,10.09,4.67,13.65,5.4,14.64s20.87,3.38,24.65,3.37a73.181,73.181,0,0,0,13.04-1.28c2.57-.65,3.4-13.59-3.08-21.35a17.041,17.041,0,0,0-1.66-.56c3.53,7.92,3.61,17.62,3.19,18.97-.6,1.92-6.53,1.64-9.3,1.58s-19.98-1.13-21.76-1.83a9.13,9.13,0,0,1-4.15-3.45c-1.39-1.78-1.58-7.91-4.09-13.2a20.758,20.758,0,0,0-4.11-5.39c-1.49.03-3.01.1-4.54.22A13.19,13.19,0,0,1,112.32,377.35Z"/><path class="h" d="M92.341,386.644,86.8,388.033s-3.933,11.275-1.582,16.022-16.041,11.289-25.14,8l3.579,4.592S85.418,415.28,89.571,407s-1.78-9.556-2.175-11.886S92.341,386.644,92.341,386.644Z"/><path class="m" d="M92.341,386.644,86.8,388.033s-3.933,11.275-1.582,16.022-16.041,11.289-25.14,8l3.579,4.592S85.418,415.28,89.571,407s-1.78-9.556-2.175-11.886S92.341,386.644,92.341,386.644Z"/><path class="o" d="M141.267,154.016s-21.4-11.975-25.827-15.076-28.126-26.354-29.455-27.018c0,0,.886-2.658-1.107-4.208s-9.745-6.644-10.852-6.644-3.987,10.852-3.543,13.509S81.777,117.9,81.777,117.9s22.59,26.3,26.133,29.983,27.683,19.4,27.683,19.4Z"/><path class="e" d="M150.05,156.209s4.693,9.476-6.7,24.509l-25.107-18.459,10.022-18.151Z"/><path class="j" d="M143.35,180.72,131.49,172l-1.55-1.14-6.69-4.91-5.01-3.69,3.69-6.67,2.09-3.79,4.25-7.69,4.1,2.28,3.54,1.96,14.14,7.86a11.249,11.249,0,0,1,.85,3.45C151.35,163.69,150.67,171.05,143.35,180.72Z"/><path class="n" d="M143.35,180.72,131.49,172c4.07-8.42,14.6-11.39,19.41-12.34C151.35,163.69,150.67,171.05,143.35,180.72Z"/><g class="p"><path class="q" d="M135.91,148.35l-3.54,2.06v-4.02Z"/><path class="q" d="M128.21,153.04l-4.44,6.23-1.84-3.68,2.09-3.79Z"/><path class="q" d="M131.49,162.41l-1.55,8.45-6.69-4.91Z"/><path class="q" d="M134.56,157.593l2.473,6.327,5.132-6.975Z"/></g><path class="o" d="M196.723,151.726s21.4-11.974,25.828-15.075,28.126-26.354,29.454-27.019c0,0-.886-2.657,1.108-4.207s9.744-6.644,10.852-6.644,3.986,10.851,3.543,13.509-11.295,3.322-11.295,3.322-22.589,26.3-26.133,29.983S202.4,165,202.4,165Z"/><path class="o" d="M171.15,278.45s-.46,7.57-1.19,17.65c-.46,6.28-1.03,13.53-1.65,20.54-.84,9.42-1.79,18.4-2.74,23.98-.87,5.13-12.42,68.84-12.42,68.84h-7.74c2.44-59.41,6.22-82.45,6.36-85.91.05-1.13.09-2.7.14-4.57.15-6.78.28-17.49.36-25.28.06-5.62.09-9.71.09-9.71Z"/><path class="o" d="M201.02,326.52c-.27,5.19-3.36,82.68-3.36,82.68h-8.51c-4.35-61.72-2.7-83.15-3.48-87.43,0-.02-.01-.03-.01-.05-1.33-7.28-2.58-16.85-3.44-23.95-.69-5.71-1.12-9.82-1.12-9.82l17.35-7.5s1.05,8.96,1.84,19.78c.39,5.4.73,11.27.83,16.73C201.19,320.38,201.17,323.64,201.02,326.52Z"/><path class="n" d="M152.27,293.7l17.69,2.4c-.46,6.28-1.03,13.53-1.65,20.54l-16.4,2.34C152.06,312.2,152.19,301.49,152.27,293.7Z"/><path class="n" d="M201.12,316.96l-15.46,4.76c-1.33-7.28-2.58-16.85-3.44-23.95l18.07,2.46C200.68,305.63,201.02,311.5,201.12,316.96Z"/><path class="e" d="M154.98,407.083H144.771a.736.736,0,0,0-.716.577l-1.657,7.483a1.24,1.24,0,0,0,.956,1.47,1.254,1.254,0,0,0,.273.027c3.3-.053,5.709-.257,9.856-.257,2.555,0,10.263.268,13.791.268s3.987-3.485,2.544-3.806c-6.478-1.411-11.353-3.367-13.427-5.227A2.027,2.027,0,0,0,154.98,407.083Z"/><path class="e" d="M198.275,406.816H188.066a.737.737,0,0,0-.716.577l-1.657,7.483a1.24,1.24,0,0,0,.956,1.47,1.259,1.259,0,0,0,.273.027c3.3-.054,5.709-.257,9.857-.257,2.555,0,10.262.267,13.79.267s3.987-3.485,2.544-3.8c-6.478-1.411-11.353-3.368-13.427-5.228A2.026,2.026,0,0,0,198.275,406.816Z"/><path class="h" d="M171.845,312.275c.081-.682.163-1.4.245-2.192,1.037-10.242,2.1-22.533,3.036-34.377,3.455,9.287,4.945,22.337,6.741,36.569h21.008a616.137,616.137,0,0,0-8.71-79.571h-44.6c-.054,4.578-.564,49-1.71,79.571Z"/><path class="g" d="M171.845,312.275c.081-.682.163-1.4.245-2.192,1.037-10.242,2.1-22.533,3.036-34.377,3.455,9.287,4.945,22.337,6.741,36.569h21.008a616.137,616.137,0,0,0-8.71-79.571h-44.6c-.054,4.578-.564,49-1.71,79.571Z"/><path class="o" d="M177.97,141.493a11.993,11.993,0,0,1-.363,1.189,11.657,11.657,0,0,1-4.158,5.54,11.788,11.788,0,0,1-1.521.94,10.532,10.532,0,0,1-12.58-2c-4.211-4.253-4.1-9.162-4.573-17.474A11.4,11.4,0,0,1,170.5,118.319C178.654,121.644,179.772,134.011,177.97,141.493Z"/><path class="n" d="M173.449,148.222a11.788,11.788,0,0,1-1.521.94,10.593,10.593,0,0,1-9.1.4,12.427,12.427,0,0,1,1.485-2.821A16.41,16.41,0,0,1,173.449,148.222Z"/><path class="o" d="M156.723,159c4.094,3.72,14.125,2.345,14.125,2.345s6.261-1.714,4.946-3.671c-3.688-.609-5.474-2.33-6.211-4.532a10.707,10.707,0,0,1-.374-4.212,22.018,22.018,0,0,1,.31-2.352l-12.4-9.183C158.743,143.459,160.731,154.608,156.723,159Z"/><path class="h" d="M173.449,133.925l1.793.678-.9-3.665s2.628-3.947,0-7.471c0,0,7.243-2.2,3.152-6.023-1.522-1.423-3.411,0-8.4-2.179-2.711-1.182-11.19-1.274-11.613,2.179,0,0-6.107-.039-6.766,10.393a20.81,20.81,0,0,0,6.468,16.438s7.374,1.747,10.955-1.213S173.449,133.925,173.449,133.925Z"/><path class="o" d="M168.726,134.52a5.387,5.387,0,0,0,2.766,3.693c1.693.718,2.8-1.667,2.56-4.166-.232-2.214-1.379-5.332-3.19-4.92S168.136,132.285,168.726,134.52Z"/><path class="n" d="M175.126,275.657c-.941,11.845-2,24.16-3.036,34.4-1.518-14.784-3.378-25.325-3.378-25.325s-1.743-1.432-6.532-9.076,0-21.914,0-21.914C162.03,267,175.126,275.657,175.126,275.657Z"/><path class="e" d="M204.385,310.537l-.923,3.474H181.1V310.8Z"/><path class="e" d="M172.934,311.02l-.669,3.207H146.943l-1.531-3.207Z"/><path class="e" d="M176.048,156.592s-3.637-5.754-12.812-6.166-9.865,5.9-9.865,5.9Z"/><path class="r" d="M176.048,156.592s-3.637-5.754-12.812-6.166-9.865,5.9-9.865,5.9Z"/><path class="e" d="M143.121,153.038a471.571,471.571,0,0,1-.956,93.534l53.73-3.277c-.609-54.84-7.951-89.373-7.951-89.373s-13.859,2.9-25.121,2.485A80.823,80.823,0,0,1,143.121,153.038Z"/><path class="e" d="M187.944,153.922s7.175,16.776,7.951,33.762-29.167,40.272-29.167,40.272-23.069-15.879-40.871-14.44-23.341,7.77-23.341,7.77,13.847-29.606,37.948-39.928c0,0-5-17.05,2.657-28.32C143.121,153.038,159.78,158.456,187.944,153.922Z"/><path class="j" d="M195.89,187.68a13.87,13.87,0,0,1-.01,1.44,16.871,16.871,0,0,1-.27,2.21,23.932,23.932,0,0,1-1.53,5.04v.01a55.082,55.082,0,0,1-8.28,13.01c-1.7,2.08-3.5,4.08-5.28,5.94a140.566,140.566,0,0,1-13.79,12.63,109.922,109.922,0,0,0-19.23-10.15c-2.05-.82-4.18-1.59-6.35-2.24h-.01a42.363,42.363,0,0,0-15.28-2.05,58.451,58.451,0,0,0-14.51,2.84c-.81.28-1.56.58-2.25.87-.21.09-.42.18-.62.27a24.525,24.525,0,0,0-4.28,2.39c-.15.1-.29.21-.42.31-.26.19-.47.36-.65.52a2.574,2.574,0,0,0-.24.21,1.325,1.325,0,0,0-.17.16l-.12.12-.07.07c.02-.05.12-.26.3-.62.08-.15.17-.34.28-.55.28-.56.67-1.31,1.18-2.22.07-.13.14-.26.22-.4q.18-.33.39-.69c.13-.24.27-.49.42-.74.58-1.02,1.26-2.16,2.03-3.39a101.483,101.483,0,0,1,14.5-18.34l.01-.01a70.345,70.345,0,0,1,6.24-5.51,55.753,55.753,0,0,1,12.36-7.45,48.246,48.246,0,0,1-1.58-13.37,34.93,34.93,0,0,1,.35-4.27,25.19,25.19,0,0,1,3.89-10.68,51.847,51.847,0,0,0,7.5,1.59,97.262,97.262,0,0,0,10.03.97,126.486,126.486,0,0,0,20.18-.71q3.42-.375,7.11-.97s.08.19.23.56a118.03,118.03,0,0,1,4.11,12.21c.44,1.59.88,3.29,1.3,5.07.38,1.65.74,3.37,1.06,5.14v.01A83.649,83.649,0,0,1,195.89,187.68Z"/><g class="k"><path class="q" d="M188.96,201.31l-3.16,8.08c-1.7,2.08-3.5,4.08-5.28,5.94l-6.43-12.04Z"/><path class="q" d="M134.56,193.59l-12.7.73a70.345,70.345,0,0,1,6.24-5.51Z"/><path class="q" d="M149.21,161.6l-1.36,13.2-8.97-6.81a34.93,34.93,0,0,1,.35-4.27Z"/><path class="q" d="M153.371,196.376,149.213,183.7l12.644-2.345Z"/><path class="q" d="M175.126,184.3v9.494l9.083-3.264Z"/><path class="q" d="M151.77,211.79l-4.27,6.02c-2.05-.82-4.18-1.59-6.35-2.24h-.01l-3.22-7.34Z"/><path class="q" d="M119.33,202.692l6.527,2.769-6.527,4.451Z"/><path class="q" d="M111.35,216.36c-6.5,2.27-8.83,4.93-8.83,4.93a90.128,90.128,0,0,1,4.83-8.62Z"/><path class="q" d="M164.71,204.077l-5.622,5.835,8.5,1.484Z"/><path class="q" d="M164.71,167.484l6.607,8.9,4.732-10.088Z"/><path class="q" d="M194.64,176.9l-8.45-5.56,6.09-4.65C193.14,169.77,193.98,173.24,194.64,176.9Z"/><path class="q" d="M195.88,189.12a21.97,21.97,0,0,1-1.8,7.25l-3.54-8.71Z"/><path class="q" d="M188.17,154.48l-5.35,5.49-1.99-5.08q3.42-.375,7.11-.97S188.02,154.11,188.17,154.48Z"/><path class="q" d="M160.65,155.6l-3.93,8.32-6.1-9.29A97.262,97.262,0,0,0,160.65,155.6Z"/></g><path class="n" d="M195.89,187.68a13.87,13.87,0,0,1-.01,1.44,16.871,16.871,0,0,1-.27,2.21c-6.98-11.1-5.34-21.14-5.34-21.14l3.31,1.57c.38,1.65.74,3.37,1.06,5.14v.01A83.649,83.649,0,0,1,195.89,187.68Z"/><path class="e" d="M167.528,109.725c11.868-4.088,14.849,11.722,3.06,22.41s-25.326,11.967-26.864,6.581S149.414,115.965,167.528,109.725Z"/><path class="e" d="M155.635,108.934c6.09-.025,14.744,6.2,14.744,6.2s1.236,6.593-4.829,12.4-11.529,6.725-14.93,4.483-4.323-10.977-4.323-10.977a6.712,6.712,0,0,1,4.323-4.452S151.62,108.95,155.635,108.934Z"/><path class="n" d="M165.55,127.53c-6.07,5.8-11.53,6.72-14.93,4.48a5.416,5.416,0,0,1-1.48-1.56c-2.2-3.31-2.84-9.42-2.84-9.42,5.8,6.96,12.52-.23,13.45-5.11a7.723,7.723,0,0,0-1.55-6.69c3.99.86,8.38,3.42,10.64,4.87.96.61,1.54,1.03,1.54,1.03S171.62,121.73,165.55,127.53Z"/><path class="j" d="M165.55,127.53c-6.07,5.8-11.53,6.72-14.93,4.48a5.416,5.416,0,0,1-1.48-1.56c6.08,1.81,13.32-1.2,17.21-6.61a13.4,13.4,0,0,0,2.49-9.74c.96.61,1.54,1.03,1.54,1.03S171.62,121.73,165.55,127.53Z"/><path class="e" d="M187.94,153.92s-4.693,9.476,6.7,24.509l25.107-18.459-10.022-18.151Z"/><path class="j" d="M219.75,159.97l-6.55,4.81-9.69,7.13-8.87,6.52c-.58-.76-1.11-1.51-1.61-2.24a43.311,43.311,0,0,1-2.76-4.64,26.924,26.924,0,0,1-3.29-12.08,13.275,13.275,0,0,1,.96-5.55l5.58-3.1,9.61-5.33,4.22-2.35,2.38-1.32Z"/><g class="p"><path class="q" d="M213.2,164.78l-9.69,7.13-4.27-9.5Z"/><path class="q" d="M212.3,149.5l-8.94,3.54-.23-7.55,4.22-2.35Z"/><path class="q" d="M196.72,156.94l-9.74,2.53a13.275,13.275,0,0,1,.96-5.55l5.58-3.1Z"/><path class="q" d="M194.64,169.07l-1.61,7.12a43.311,43.311,0,0,1-2.76-4.64Z"/></g><rect class="s" width="12.534" height="62.311" transform="translate(255.057 322.993) rotate(-175.521)"/><path class="h" d="M245.77,408.542l1.986.156a3.983,3.983,0,1,1-.622,7.94l-1.986-.156a3.983,3.983,0,1,1,.622-7.94Z"/><path class="m" d="M241.421,412.122a4.055,4.055,0,1,0,4.36-3.726A4.056,4.056,0,0,0,241.421,412.122Z"/><path class="h" d="M234.852,407.687l1.986.155a3.983,3.983,0,1,1-.622,7.94l-1.986-.155a3.983,3.983,0,1,1,.622-7.94Z"/><path class="g" d="M230.5,411.267a4.056,4.056,0,1,0,4.36-3.726A4.056,4.056,0,0,0,230.5,411.267Z"/><rect class="h" width="20.901" height="99.71" rx="2.694" transform="matrix(-0.997, -0.078, 0.078, -0.997, 251.184, 410.308)"/><rect class="g" width="13.162" height="99.71" rx="2.694" transform="translate(251.185 410.308) rotate(-175.521)"/><rect class="h" width="17.049" height="5.227" rx="2" transform="matrix(-0.997, -0.078, 0.078, -0.997, 262.135, 262.918)"/><rect class="g" width="17.049" height="5.227" rx="2" transform="matrix(-0.997, -0.078, 0.078, -0.997, 262.135, 262.918)"/><rect class="n" width="5.095" height="5.227" rx="2" transform="translate(250.217 261.984) rotate(-175.526)"/><path class="e" d="M287.54,320.641,280.884,405.6a5.683,5.683,0,0,1-6.1,5.216l-31.042-2.431a3.992,3.992,0,0,1-3.655-4.289L247,315.775a3.983,3.983,0,0,1,4.278-3.668l31.042,2.432A5.684,5.684,0,0,1,287.54,320.641Z"/><path class="g" d="M287.54,320.641,280.884,405.6a5.683,5.683,0,0,1-6.1,5.216l-31.042-2.431a3.992,3.992,0,0,1-3.655-4.289L247,315.775a3.983,3.983,0,0,1,4.278-3.668l31.042,2.432A5.684,5.684,0,0,1,287.54,320.641Z"/><path class="n" d="M266.22,313.28l-.01.12-1.11-.09a3.992,3.992,0,0,0-4.28,3.67l-6.92,88.34a3.989,3.989,0,0,0,2.73,4.08l-12.89-1.01a4,4,0,0,1-3.66-4.28L247,315.78a3.985,3.985,0,0,1,4.28-3.67Z"/><rect class="n" width="2.639" height="89.05" rx="1.088" transform="translate(264.415 316.257) rotate(4.48)"/><rect class="n" width="2.639" height="89.05" rx="1.088" transform="translate(270.619 317.177) rotate(4.48)"/><rect class="n" width="2.639" height="89.05" rx="1.088" transform="translate(276.823 317.54) rotate(4.481)"/><rect class="n" width="2.639" height="89.05" rx="1.088" transform="translate(283.026 317.903) rotate(4.48)"/></g></svg>