<svg xmlns="http://www.w3.org/2000/svg" width="45" height="40" viewBox="0 0 45 40"><defs><style>.a{fill:#407bff;}</style></defs><path class="a" d="M43.75,12.5a1.254,1.254,0,0,0-.469.094L30,17.5l-.8-.281c1.82-2.727,3.3-5.562,3.3-7.609A9.807,9.807,0,0,0,22.5,0a9.812,9.812,0,0,0-10,9.609,8.412,8.412,0,0,0,.812,3.172L1.57,16.875A2.5,2.5,0,0,0,0,19.2V38.75a1.245,1.245,0,0,0,1.719,1.156L15,35l13.437,4.742a5.027,5.027,0,0,0,3.125.016L43.43,35.625A2.494,2.494,0,0,0,45,33.3V13.75A1.248,1.248,0,0,0,43.75,12.5Zm-30,20.3L2.492,36.953l-.1-17.727L13.75,15.281ZM22.5,2.5A7.321,7.321,0,0,1,30,9.609c0,2.109-2.977,6.945-7.5,12.25-4.523-5.3-7.5-10.141-7.5-12.25A7.321,7.321,0,0,1,22.5,2.5Zm6.25,34.7-12.5-4.414V17.875a76.269,76.269,0,0,0,5.289,6.7,1.289,1.289,0,0,0,1.922,0c1-1.133,2.633-3.055,4.242-5.227l1.047.367Zm2.5.016V19.7l11.258-4.156.1,17.727ZM24.375,10A1.875,1.875,0,1,0,22.5,11.875,1.875,1.875,0,0,0,24.375,10Z"/></svg>