<svg xmlns="http://www.w3.org/2000/svg" width="50" height="40" viewBox="0 0 50 40"><defs><style>.a{fill:#407bff;}</style></defs><path class="a" d="M36.309,5a15.49,15.49,0,0,0-9.365,3.114C25.273,3.437,19.97,0,13.692,0,6.825,0,1.083,4.005.043,9.523A2.568,2.568,0,0,0,2.657,12.5H7.316L10,10.35l1.038.832c-.045.044-.1.078-.14.12C6.041,16.161,4.815,23.052,7.981,27.687a2.566,2.566,0,0,0,3.992.216L21.4,17.573a69.266,69.266,0,0,1-2.556,19.265A2.487,2.487,0,0,0,21.222,40h7.065a2.473,2.473,0,0,0,2.452-2.091c1.172-7.266.131-15.055-.976-20.409h7.005l1.983-1.983L40.733,17.5h6.612a2.568,2.568,0,0,0,2.614-2.977C48.919,9.005,43.176,5,36.309,5ZM10,7.15,6.439,10,2.5,9.987C3.3,5.719,8.116,2.5,13.692,2.5a12.161,12.161,0,0,1,9.792,4.42A13.827,13.827,0,0,0,12.991,9.541Zm.046,19.127c-2.451-3.585-1.323-9.262,2.62-13.2a12.586,12.586,0,0,1,8.659-3.891,8.177,8.177,0,0,1,3.611.8ZM28.287,37.5l-7.036,0c1.1-3.977,3.306-13.395,2.523-22.536l2.2-2.409C26.919,15.852,29.9,27.422,28.287,37.5ZM41.768,15l-3.017-3.017L35.733,15H29.207c-.685-2.847-1.239-4.463-1.262-4.531A12.871,12.871,0,0,1,36.309,7.5c5.576,0,10.391,3.219,11.035,7.5Z" transform="translate(-0.001)"/></svg>