<svg xmlns="http://www.w3.org/2000/svg" width="45" height="40" viewBox="0 0 45 40"><defs><style>.a{fill:#407bff;}</style></defs><path class="a" d="M37.5,15H28.574L20.363.63A1.251,1.251,0,0,0,19.277,0h-6.9a1.249,1.249,0,0,0-1.2,1.593L15,15H10L6.627,10.5a1.25,1.25,0,0,0-1-.5H1.253A1.25,1.25,0,0,0,.041,11.553L2.5,20,.041,28.447A1.25,1.25,0,0,0,1.253,30H5.627a1.249,1.249,0,0,0,1-.5L10,25h5l-3.83,13.406A1.25,1.25,0,0,0,12.374,40h6.9a1.251,1.251,0,0,0,1.085-.63L28.574,25H37.5c2.762,0,7.5-2.238,7.5-5S40.264,15,37.5,15Zm0,7.5H27.123l-8.571,15h-4.52l4.286-15H8.752L5,27.5H2.92L5.106,20,2.919,12.5H5l3.75,5h9.564l-4.285-15h4.521l8.571,15H37.5c2.05,0,4.891,1.7,5,2.493C42.394,20.8,39.552,22.5,37.5,22.5Z" transform="translate(-0.003)"/></svg>