<svg xmlns="http://www.w3.org/2000/svg" width="50" height="40" viewBox="0 0 50 40"><defs><style>.a{fill:#407bff;}</style></defs><path class="a" d="M34.647,1.413A23.305,23.305,0,0,0,8.435,8.776a1.249,1.249,0,0,0,.58,1.93l18.449,6.715L20.155,37.5H.625A.625.625,0,0,0,0,38.125v1.25A.625.625,0,0,0,.625,40h43.75A.625.625,0,0,0,45,39.375v-1.25a.625.625,0,0,0-.625-.625H22.815l7-19.224,18.5,6.732a1.254,1.254,0,0,0,.432.077A1.238,1.238,0,0,0,49.993,23.9,23.337,23.337,0,0,0,34.647,1.412ZM11.576,8.978A21.039,21.039,0,0,1,26.673,2.5q.915,0,1.825.081c-2.88,1.809-5.763,5.2-8.052,9.626L11.576,8.978ZM36.2,17.941,22.833,13.076C25.991,7.1,30.07,3.6,32.844,3.6a2.737,2.737,0,0,1,.948.161c1.528.556,2.654,2.747,3.013,5.859A26.1,26.1,0,0,1,36.2,17.941Zm2.406.876c1.08-4.81,1.068-9.241.055-12.472a20.786,20.786,0,0,1,8.8,15.695l-8.852-3.223Z"/></svg>